<svg width="35" height="35" viewBox="0 0 35 35" fill="none" xmlns="http://www.w3.org/2000/svg">
<path d="M11 17.5C11 18.8807 9.88071 20 8.5 20C7.11929 20 6 18.8807 6 17.5C6 16.1193 7.11929 15 8.5 15C9.88071 15 11 16.1193 11 17.5Z" fill="white"/>
<path d="M20 17.5C20 18.8807 18.8807 20 17.5 20C16.1193 20 15 18.8807 15 17.5C15 16.1193 16.1193 15 17.5 15C18.8807 15 20 16.1193 20 17.5Z" fill="white"/>
<path d="M29 17.5C29 18.8807 27.8807 20 26.5 20C25.1193 20 24 18.8807 24 17.5C24 16.1193 25.1193 15 26.5 15C27.8807 15 29 16.1193 29 17.5Z" fill="white"/>
</svg>
